<svg xmlns="http://www.w3.org/2000/svg" version="1.1" xmlns:xlink="http://www.w3.org/1999/xlink" xmlns:svgjs="http://svgjs.dev/svgjs" width="1440" height="250" preserveAspectRatio="none" viewBox="0 0 1440 250"><g mask="url(&quot;#SvgjsMask1671&quot;)" fill="none"><rect width="1440" height="250" x="0" y="0" fill="#0e2a47"></rect><path d="M24 250L274 0L508 0L258 250z" fill="url(&quot;#SvgjsLinearGradient1672&quot;)"></path><path d="M251.60000000000002 250L501.6 0L753.6 0L503.6 250z" fill="url(&quot;#SvgjsLinearGradient1672&quot;)"></path><path d="M495.20000000000005 250L745.2 0L914.7 0L664.7 250z" fill="url(&quot;#SvgjsLinearGradient1672&quot;)"></path><path d="M751.8000000000001 250L1001.8000000000001 0L1108.3000000000002 0L858.3000000000001 250z" fill="url(&quot;#SvgjsLinearGradient1672&quot;)"></path><path d="M1429 250L1179 0L1017 0L1267 250z" fill="url(&quot;#SvgjsLinearGradient1673&quot;)"></path><path d="M1163.4 250L913.4000000000001 0L602.9000000000001 0L852.9000000000001 250z" fill="url(&quot;#SvgjsLinearGradient1673&quot;)"></path><path d="M946.8 250L696.8 0L452.29999999999995 0L702.3 250z" fill="url(&quot;#SvgjsLinearGradient1673&quot;)"></path><path d="M683.1999999999999 250L433.19999999999993 0L131.69999999999993 0L381.69999999999993 250z" fill="url(&quot;#SvgjsLinearGradient1673&quot;)"></path><path d="M1204.8545975220663 250L1440 14.85459752206637L1440 250z" fill="url(&quot;#SvgjsLinearGradient1672&quot;)"></path><path d="M0 250L235.14540247793363 250L 0 14.85459752206637z" fill="url(&quot;#SvgjsLinearGradient1673&quot;)"></path></g><defs><mask id="SvgjsMask1671"><rect width="1440" height="250" fill="#ffffff"></rect></mask><linearGradient x1="0%" y1="100%" x2="100%" y2="0%" id="SvgjsLinearGradient1672"><stop stop-color="rgba(0, 151, 225, 0.27)" offset="0"></stop><stop stop-opacity="0" stop-color="rgba(0, 151, 225, 0.27)" offset="0.66"></stop></linearGradient><linearGradient x1="100%" y1="100%" x2="0%" y2="0%" id="SvgjsLinearGradient1673"><stop stop-color="rgba(0, 151, 225, 0.27)" offset="0"></stop><stop stop-opacity="0" stop-color="rgba(0, 151, 225, 0.27)" offset="0.66"></stop></linearGradient></defs></svg>