<svg xmlns="http://www.w3.org/2000/svg" version="1.1" xmlns:xlink="http://www.w3.org/1999/xlink" xmlns:svgjs="http://svgjs.dev/svgjs" width="1440" height="560" preserveAspectRatio="none" viewBox="0 0 1440 560"><g mask="url(&quot;#SvgjsMask1007&quot;)" fill="none"><path d="M182.78 651.56C377.29 630.58 501.38 206.85 826.38 206.4 1151.37 205.95 1296.21 464.58 1469.97 469.6" stroke="rgba(244, 244, 244, 0.58)" stroke-width="2"></path><path d="M367.26 664.11C558.84 635.56 664.99 180.9 972.21 180.06 1279.43 179.22 1411.77 442.9 1577.16 448.86" stroke="rgba(244, 244, 244, 0.58)" stroke-width="2"></path><path d="M596.78 602.53C749.86 570.16 815.27 174.08 1050.83 171.77 1286.39 169.46 1382.89 347.77 1504.88 350.97" stroke="rgba(244, 244, 244, 0.58)" stroke-width="2"></path><path d="M834.76 574.02C919.32 564.27 874.81 391.57 1112.09 376.53 1349.37 361.49 1513.41 119.89 1666.75 113.33" stroke="rgba(244, 244, 244, 0.58)" stroke-width="2"></path><path d="M844.31 618.22C980.63 572.67 1020.58 175.58 1209.28 173.98 1397.97 172.38 1464 414.14 1574.24 425.98" stroke="rgba(244, 244, 244, 0.58)" stroke-width="2"></path></g><defs><mask id="SvgjsMask1007"><rect width="1440" height="560" fill="#ffffff"></rect></mask></defs></svg>