<svg xmlns="http://www.w3.org/2000/svg" version="1.1" xmlns:xlink="http://www.w3.org/1999/xlink" xmlns:svgjs="http://svgjs.dev/svgjs" width="1440" height="560" preserveAspectRatio="none" viewBox="0 0 1440 560"><g mask="url(&quot;#SvgjsMask1006&quot;)" fill="none"><rect width="1440" height="560" x="0" y="0" fill="#0e2a47"></rect><path d="M-59.24 348.46L-59.24 348.46" stroke="#132e65" stroke-width="1.5"></path><path d="M-59.24 348.46L41.51 374.62" stroke="#132e65" stroke-width="1.5"></path><path d="M-59.24 348.46L-55.89 494.79" stroke="#132e65" stroke-width="1.5"></path><path d="M-59.24 348.46L55.85 551.89" stroke="#132e65" stroke-width="1.5"></path><path d="M-59.24 348.46L209.64 408.1" stroke="#132e65" stroke-width="1.5"></path><path d="M-55.89 494.79L-55.89 494.79" stroke="#132e65" stroke-width="1.5"></path><path d="M-55.89 494.79L55.85 551.89" stroke="#132e65" stroke-width="1.5"></path><path d="M-55.89 494.79L41.51 374.62" stroke="#132e65" stroke-width="1.5"></path><path d="M-44.35 666.41L-44.35 666.41" stroke="#132e65" stroke-width="1.5"></path><path d="M-44.35 666.41L54.85 658.82" stroke="#132e65" stroke-width="1.5"></path><path d="M-44.35 666.41L55.85 551.89" stroke="#132e65" stroke-width="1.5"></path><path d="M-44.35 666.41L-55.89 494.79" stroke="#132e65" stroke-width="1.5"></path><path d="M-44.35 666.41L41.51 374.62" stroke="#132e65" stroke-width="1.5"></path><path d="M41.51 374.62L41.51 374.62" stroke="#132e65" stroke-width="1.5"></path><path d="M41.51 374.62L209.64 408.1" stroke="#132e65" stroke-width="1.5"></path><path d="M41.51 374.62L55.85 551.89" stroke="#132e65" stroke-width="1.5"></path><path d="M41.51 374.62L245.83 527.99" stroke="#132e65" stroke-width="1.5"></path><path d="M41.51 374.62L54.85 658.82" stroke="#132e65" stroke-width="1.5"></path><path d="M55.85 551.89L55.85 551.89" stroke="#132e65" stroke-width="1.5"></path><path d="M55.85 551.89L54.85 658.82" stroke="#132e65" stroke-width="1.5"></path><path d="M55.85 551.89L245.83 527.99" stroke="#132e65" stroke-width="1.5"></path><path d="M55.85 551.89L209.64 408.1" stroke="#132e65" stroke-width="1.5"></path><path d="M54.85 658.82L54.85 658.82" stroke="#132e65" stroke-width="1.5"></path><path d="M54.85 658.82L-55.89 494.79" stroke="#132e65" stroke-width="1.5"></path><path d="M54.85 658.82L245.83 527.99" stroke="#132e65" stroke-width="1.5"></path><path d="M54.85 658.82L209.64 408.1" stroke="#132e65" stroke-width="1.5"></path><path d="M209.64 408.1L209.64 408.1" stroke="#132e65" stroke-width="1.5"></path><path d="M209.64 408.1L245.83 527.99" stroke="#132e65" stroke-width="1.5"></path><path d="M209.64 408.1L408.84 339.33" stroke="#132e65" stroke-width="1.5"></path><path d="M209.64 408.1L377.82 541" stroke="#132e65" stroke-width="1.5"></path><path d="M245.83 527.99L245.83 527.99" stroke="#132e65" stroke-width="1.5"></path><path d="M245.83 527.99L377.82 541" stroke="#132e65" stroke-width="1.5"></path><path d="M245.83 527.99L352.46 677.22" stroke="#132e65" stroke-width="1.5"></path><path d="M245.83 527.99L408.84 339.33" stroke="#132e65" stroke-width="1.5"></path><path d="M408.84 339.33L408.84 339.33" stroke="#132e65" stroke-width="1.5"></path><path d="M408.84 339.33L525.6 400.18" stroke="#132e65" stroke-width="1.5"></path><path d="M408.84 339.33L377.82 541" stroke="#132e65" stroke-width="1.5"></path><path d="M377.82 541L377.82 541" stroke="#132e65" stroke-width="1.5"></path><path d="M377.82 541L352.46 677.22" stroke="#132e65" stroke-width="1.5"></path><path d="M377.82 541L555.38 543.11" stroke="#132e65" stroke-width="1.5"></path><path d="M352.46 677.22L352.46 677.22" stroke="#132e65" stroke-width="1.5"></path><path d="M352.46 677.22L508.17 677.4" stroke="#132e65" stroke-width="1.5"></path><path d="M525.6 400.18L525.6 400.18" stroke="#132e65" stroke-width="1.5"></path><path d="M525.6 400.18L555.38 543.11" stroke="#132e65" stroke-width="1.5"></path><path d="M525.6 400.18L693.39 337.59" stroke="#132e65" stroke-width="1.5"></path><path d="M525.6 400.18L694.71 500.2" stroke="#132e65" stroke-width="1.5"></path><path d="M555.38 543.11L555.38 543.11" stroke="#132e65" stroke-width="1.5"></path><path d="M555.38 543.11L508.17 677.4" stroke="#132e65" stroke-width="1.5"></path><path d="M555.38 543.11L694.71 500.2" stroke="#132e65" stroke-width="1.5"></path><path d="M508.17 677.4L508.17 677.4" stroke="#132e65" stroke-width="1.5"></path><path d="M508.17 677.4L646.36 697.1" stroke="#132e65" stroke-width="1.5"></path><path d="M663.27 232.13L663.27 232.13" stroke="#132e65" stroke-width="1.5"></path><path d="M663.27 232.13L693.39 337.59" stroke="#132e65" stroke-width="1.5"></path><path d="M663.27 232.13L812.95 203.14" stroke="#132e65" stroke-width="1.5"></path><path d="M663.27 232.13L525.6 400.18" stroke="#132e65" stroke-width="1.5"></path><path d="M663.27 232.13L861.54 62.48" stroke="#132e65" stroke-width="1.5"></path><path d="M663.27 232.13L694.71 500.2" stroke="#132e65" stroke-width="1.5"></path><path d="M693.39 337.59L693.39 337.59" stroke="#132e65" stroke-width="1.5"></path><path d="M693.39 337.59L694.71 500.2" stroke="#132e65" stroke-width="1.5"></path><path d="M694.71 500.2L694.71 500.2" stroke="#132e65" stroke-width="1.5"></path><path d="M694.71 500.2L794.1 561.63" stroke="#132e65" stroke-width="1.5"></path><path d="M694.71 500.2L646.36 697.1" stroke="#132e65" stroke-width="1.5"></path><path d="M646.36 697.1L646.36 697.1" stroke="#132e65" stroke-width="1.5"></path><path d="M646.36 697.1L806.83 712.5" stroke="#132e65" stroke-width="1.5"></path><path d="M646.36 697.1L555.38 543.11" stroke="#132e65" stroke-width="1.5"></path><path d="M646.36 697.1L794.1 561.63" stroke="#132e65" stroke-width="1.5"></path><path d="M861.54 62.48L861.54 62.48" stroke="#132e65" stroke-width="1.5"></path><path d="M861.54 62.48L946.27 40.86" stroke="#132e65" stroke-width="1.5"></path><path d="M861.54 62.48L812.95 203.14" stroke="#132e65" stroke-width="1.5"></path><path d="M861.54 62.48L994.95 -58.31" stroke="#132e65" stroke-width="1.5"></path><path d="M861.54 62.48L1011.86 250.32" stroke="#132e65" stroke-width="1.5"></path><path d="M812.95 203.14L812.95 203.14" stroke="#132e65" stroke-width="1.5"></path><path d="M812.95 203.14L693.39 337.59" stroke="#132e65" stroke-width="1.5"></path><path d="M812.95 203.14L1011.86 250.32" stroke="#132e65" stroke-width="1.5"></path><path d="M812.95 203.14L946.27 40.86" stroke="#132e65" stroke-width="1.5"></path><path d="M812.95 203.14L942.46 411.72" stroke="#132e65" stroke-width="1.5"></path><path d="M794.1 561.63L794.1 561.63" stroke="#132e65" stroke-width="1.5"></path><path d="M794.1 561.63L806.83 712.5" stroke="#132e65" stroke-width="1.5"></path><path d="M806.83 712.5L806.83 712.5" stroke="#132e65" stroke-width="1.5"></path><path d="M806.83 712.5L983.33 698.72" stroke="#132e65" stroke-width="1.5"></path><path d="M994.95 -58.31L994.95 -58.31" stroke="#132e65" stroke-width="1.5"></path><path d="M994.95 -58.31L946.27 40.86" stroke="#132e65" stroke-width="1.5"></path><path d="M994.95 -58.31L1134.95 -83.78" stroke="#132e65" stroke-width="1.5"></path><path d="M994.95 -58.31L1125.69 54.35" stroke="#132e65" stroke-width="1.5"></path><path d="M946.27 40.86L946.27 40.86" stroke="#132e65" stroke-width="1.5"></path><path d="M946.27 40.86L1125.69 54.35" stroke="#132e65" stroke-width="1.5"></path><path d="M946.27 40.86L1011.86 250.32" stroke="#132e65" stroke-width="1.5"></path><path d="M1011.86 250.32L1011.86 250.32" stroke="#132e65" stroke-width="1.5"></path><path d="M1011.86 250.32L1115.86 205.24" stroke="#132e65" stroke-width="1.5"></path><path d="M1011.86 250.32L942.46 411.72" stroke="#132e65" stroke-width="1.5"></path><path d="M1011.86 250.32L1100.17 404.5" stroke="#132e65" stroke-width="1.5"></path><path d="M1011.86 250.32L1125.69 54.35" stroke="#132e65" stroke-width="1.5"></path><path d="M942.46 411.72L942.46 411.72" stroke="#132e65" stroke-width="1.5"></path><path d="M942.46 411.72L975.19 548.33" stroke="#132e65" stroke-width="1.5"></path><path d="M942.46 411.72L1100.17 404.5" stroke="#132e65" stroke-width="1.5"></path><path d="M942.46 411.72L794.1 561.63" stroke="#132e65" stroke-width="1.5"></path><path d="M975.19 548.33L975.19 548.33" stroke="#132e65" stroke-width="1.5"></path><path d="M975.19 548.33L983.33 698.72" stroke="#132e65" stroke-width="1.5"></path><path d="M975.19 548.33L1114.44 648.16" stroke="#132e65" stroke-width="1.5"></path><path d="M975.19 548.33L794.1 561.63" stroke="#132e65" stroke-width="1.5"></path><path d="M983.33 698.72L983.33 698.72" stroke="#132e65" stroke-width="1.5"></path><path d="M983.33 698.72L1114.44 648.16" stroke="#132e65" stroke-width="1.5"></path><path d="M983.33 698.72L794.1 561.63" stroke="#132e65" stroke-width="1.5"></path><path d="M983.33 698.72L942.46 411.72" stroke="#132e65" stroke-width="1.5"></path><path d="M983.33 698.72L1284.43 701.69" stroke="#132e65" stroke-width="1.5"></path><path d="M1134.95 -83.78L1134.95 -83.78" stroke="#132e65" stroke-width="1.5"></path><path d="M1134.95 -83.78L1125.69 54.35" stroke="#132e65" stroke-width="1.5"></path><path d="M1134.95 -83.78L946.27 40.86" stroke="#132e65" stroke-width="1.5"></path><path d="M1134.95 -83.78L1265.02 112.12" stroke="#132e65" stroke-width="1.5"></path><path d="M1134.95 -83.78L1417.85 -103.66" stroke="#132e65" stroke-width="1.5"></path><path d="M1134.95 -83.78L1115.86 205.24" stroke="#132e65" stroke-width="1.5"></path><path d="M1125.69 54.35L1125.69 54.35" stroke="#132e65" stroke-width="1.5"></path><path d="M1125.69 54.35L1265.02 112.12" stroke="#132e65" stroke-width="1.5"></path><path d="M1115.86 205.24L1115.86 205.24" stroke="#132e65" stroke-width="1.5"></path><path d="M1115.86 205.24L1125.69 54.35" stroke="#132e65" stroke-width="1.5"></path><path d="M1115.86 205.24L1265.02 112.12" stroke="#132e65" stroke-width="1.5"></path><path d="M1115.86 205.24L1290.95 257.62" stroke="#132e65" stroke-width="1.5"></path><path d="M1100.17 404.5L1100.17 404.5" stroke="#132e65" stroke-width="1.5"></path><path d="M1100.17 404.5L975.19 548.33" stroke="#132e65" stroke-width="1.5"></path><path d="M1114.44 648.16L1114.44 648.16" stroke="#132e65" stroke-width="1.5"></path><path d="M1265.02 112.12L1265.02 112.12" stroke="#132e65" stroke-width="1.5"></path><path d="M1265.02 112.12L1290.95 257.62" stroke="#132e65" stroke-width="1.5"></path><path d="M1265.02 112.12L1446.49 40.2" stroke="#132e65" stroke-width="1.5"></path><path d="M1290.95 257.62L1290.95 257.62" stroke="#132e65" stroke-width="1.5"></path><path d="M1290.95 257.62L1304.86 363.81" stroke="#132e65" stroke-width="1.5"></path><path d="M1290.95 257.62L1460.38 238.89" stroke="#132e65" stroke-width="1.5"></path><path d="M1304.86 363.81L1304.86 363.81" stroke="#132e65" stroke-width="1.5"></path><path d="M1304.86 363.81L1462.27 349.2" stroke="#132e65" stroke-width="1.5"></path><path d="M1261.22 520.71L1261.22 520.71" stroke="#132e65" stroke-width="1.5"></path><path d="M1261.22 520.71L1304.86 363.81" stroke="#132e65" stroke-width="1.5"></path><path d="M1261.22 520.71L1436.92 531.85" stroke="#132e65" stroke-width="1.5"></path><path d="M1261.22 520.71L1284.43 701.69" stroke="#132e65" stroke-width="1.5"></path><path d="M1261.22 520.71L1114.44 648.16" stroke="#132e65" stroke-width="1.5"></path><path d="M1261.22 520.71L1100.17 404.5" stroke="#132e65" stroke-width="1.5"></path><path d="M1284.43 701.69L1284.43 701.69" stroke="#132e65" stroke-width="1.5"></path><path d="M1284.43 701.69L1399.73 666.32" stroke="#132e65" stroke-width="1.5"></path><path d="M1284.43 701.69L1114.44 648.16" stroke="#132e65" stroke-width="1.5"></path><path d="M1417.85 -103.66L1417.85 -103.66" stroke="#132e65" stroke-width="1.5"></path><path d="M1417.85 -103.66L1446.49 40.2" stroke="#132e65" stroke-width="1.5"></path><path d="M1417.85 -103.66L1611.68 -42.41" stroke="#132e65" stroke-width="1.5"></path><path d="M1417.85 -103.66L1559.96 65.12" stroke="#132e65" stroke-width="1.5"></path><path d="M1417.85 -103.66L1265.02 112.12" stroke="#132e65" stroke-width="1.5"></path><path d="M1446.49 40.2L1446.49 40.2" stroke="#132e65" stroke-width="1.5"></path><path d="M1446.49 40.2L1559.96 65.12" stroke="#132e65" stroke-width="1.5"></path><path d="M1446.49 40.2L1611.68 -42.41" stroke="#132e65" stroke-width="1.5"></path><path d="M1460.38 238.89L1460.38 238.89" stroke="#132e65" stroke-width="1.5"></path><path d="M1460.38 238.89L1462.27 349.2" stroke="#132e65" stroke-width="1.5"></path><path d="M1460.38 238.89L1598.24 203" stroke="#132e65" stroke-width="1.5"></path><path d="M1462.27 349.2L1462.27 349.2" stroke="#132e65" stroke-width="1.5"></path><path d="M1462.27 349.2L1597.32 383.75" stroke="#132e65" stroke-width="1.5"></path><path d="M1462.27 349.2L1436.92 531.85" stroke="#132e65" stroke-width="1.5"></path><path d="M1436.92 531.85L1436.92 531.85" stroke="#132e65" stroke-width="1.5"></path><path d="M1436.92 531.85L1571.95 554.36" stroke="#132e65" stroke-width="1.5"></path><path d="M1399.73 666.32L1399.73 666.32" stroke="#132e65" stroke-width="1.5"></path><path d="M1399.73 666.32L1436.92 531.85" stroke="#132e65" stroke-width="1.5"></path><path d="M1399.73 666.32L1543.79 692.63" stroke="#132e65" stroke-width="1.5"></path><path d="M1399.73 666.32L1261.22 520.71" stroke="#132e65" stroke-width="1.5"></path><path d="M1399.73 666.32L1571.95 554.36" stroke="#132e65" stroke-width="1.5"></path><path d="M1399.73 666.32L1114.44 648.16" stroke="#132e65" stroke-width="1.5"></path><path d="M1611.68 -42.41L1611.68 -42.41" stroke="#132e65" stroke-width="1.5"></path><path d="M1611.68 -42.41L1559.96 65.12" stroke="#132e65" stroke-width="1.5"></path><path d="M1611.68 -42.41L1598.24 203" stroke="#132e65" stroke-width="1.5"></path><path d="M1559.96 65.12L1559.96 65.12" stroke="#132e65" stroke-width="1.5"></path><path d="M1559.96 65.12L1598.24 203" stroke="#132e65" stroke-width="1.5"></path><path d="M1598.24 203L1598.24 203" stroke="#132e65" stroke-width="1.5"></path><path d="M1598.24 203L1597.32 383.75" stroke="#132e65" stroke-width="1.5"></path><path d="M1598.24 203L1462.27 349.2" stroke="#132e65" stroke-width="1.5"></path><path d="M1597.32 383.75L1597.32 383.75" stroke="#132e65" stroke-width="1.5"></path><path d="M1597.32 383.75L1571.95 554.36" stroke="#132e65" stroke-width="1.5"></path><path d="M1597.32 383.75L1460.38 238.89" stroke="#132e65" stroke-width="1.5"></path><path d="M1597.32 383.75L1436.92 531.85" stroke="#132e65" stroke-width="1.5"></path><path d="M1571.95 554.36L1571.95 554.36" stroke="#132e65" stroke-width="1.5"></path><path d="M1571.95 554.36L1543.79 692.63" stroke="#132e65" stroke-width="1.5"></path><path d="M1543.79 692.63L1543.79 692.63" stroke="#132e65" stroke-width="1.5"></path><path d="M1543.79 692.63L1436.92 531.85" stroke="#132e65" stroke-width="1.5"></path><path d="M1543.79 692.63L1284.43 701.69" stroke="#132e65" stroke-width="1.5"></path><path d="M1543.79 692.63L1597.32 383.75" stroke="#132e65" stroke-width="1.5"></path><circle r="5" cx="-59.24" cy="348.46" fill="#132e65"></circle><circle r="5" cx="-55.89" cy="494.79" fill="#132e65"></circle><circle r="5" cx="-44.35" cy="666.41" fill="#132e65"></circle><circle r="5" cx="41.51" cy="374.62" fill="#132e65"></circle><circle r="5" cx="55.85" cy="551.89" fill="#132e65"></circle><circle r="5" cx="54.85" cy="658.82" fill="#132e65"></circle><circle r="5" cx="209.64" cy="408.1" fill="#132e65"></circle><circle r="5" cx="245.83" cy="527.99" fill="#132e65"></circle><circle r="5" cx="408.84" cy="339.33" fill="#132e65"></circle><circle r="5" cx="377.82" cy="541" fill="#132e65"></circle><circle r="5" cx="352.46" cy="677.22" fill="#132e65"></circle><circle r="5" cx="525.6" cy="400.18" fill="#132e65"></circle><circle r="5" cx="555.38" cy="543.11" fill="#132e65"></circle><circle r="5" cx="508.17" cy="677.4" fill="#132e65"></circle><circle r="5" cx="663.27" cy="232.13" fill="#132e65"></circle><circle r="5" cx="693.39" cy="337.59" fill="#132e65"></circle><circle r="5" cx="694.71" cy="500.2" fill="#132e65"></circle><circle r="5" cx="646.36" cy="697.1" fill="#132e65"></circle><circle r="5" cx="861.54" cy="62.48" fill="#132e65"></circle><circle r="5" cx="812.95" cy="203.14" fill="#132e65"></circle><circle r="5" cx="794.1" cy="561.63" fill="#132e65"></circle><circle r="5" cx="806.83" cy="712.5" fill="#132e65"></circle><circle r="5" cx="994.95" cy="-58.31" fill="#132e65"></circle><circle r="5" cx="946.27" cy="40.86" fill="#132e65"></circle><circle r="5" cx="1011.86" cy="250.32" fill="#132e65"></circle><circle r="5" cx="942.46" cy="411.72" fill="#132e65"></circle><circle r="5" cx="975.19" cy="548.33" fill="#132e65"></circle><circle r="5" cx="983.33" cy="698.72" fill="#132e65"></circle><circle r="5" cx="1134.95" cy="-83.78" fill="#132e65"></circle><circle r="5" cx="1125.69" cy="54.35" fill="#132e65"></circle><circle r="5" cx="1115.86" cy="205.24" fill="#132e65"></circle><circle r="5" cx="1100.17" cy="404.5" fill="#132e65"></circle><circle r="5" cx="1114.44" cy="648.16" fill="#132e65"></circle><circle r="5" cx="1265.02" cy="112.12" fill="#132e65"></circle><circle r="5" cx="1290.95" cy="257.62" fill="#132e65"></circle><circle r="5" cx="1304.86" cy="363.81" fill="#132e65"></circle><circle r="5" cx="1261.22" cy="520.71" fill="#132e65"></circle><circle r="5" cx="1284.43" cy="701.69" fill="#132e65"></circle><circle r="5" cx="1417.85" cy="-103.66" fill="#132e65"></circle><circle r="5" cx="1446.49" cy="40.2" fill="#132e65"></circle><circle r="5" cx="1460.38" cy="238.89" fill="#132e65"></circle><circle r="5" cx="1462.27" cy="349.2" fill="#132e65"></circle><circle r="5" cx="1436.92" cy="531.85" fill="#132e65"></circle><circle r="5" cx="1399.73" cy="666.32" fill="#132e65"></circle><circle r="5" cx="1611.68" cy="-42.41" fill="#132e65"></circle><circle r="5" cx="1559.96" cy="65.12" fill="#132e65"></circle><circle r="5" cx="1598.24" cy="203" fill="#132e65"></circle><circle r="5" cx="1597.32" cy="383.75" fill="#132e65"></circle><circle r="5" cx="1571.95" cy="554.36" fill="#132e65"></circle><circle r="5" cx="1543.79" cy="692.63" fill="#132e65"></circle><path d="M411.1 531.47L411.1 531.47" stroke="hsl(228.5, 77.2%, 51.5%)" stroke-width="1.5"></path><path d="M411.1 531.47L511.71 503.55" stroke="hsl(228.5, 77.2%, 51.5%)" stroke-width="1.5"></path><path d="M411.1 531.47L558.66 645.09" stroke="hsl(228.5, 77.2%, 51.5%)" stroke-width="1.5"></path><path d="M411.1 531.47L224.96 543.92" stroke="hsl(228.5, 77.2%, 51.5%)" stroke-width="1.5"></path><path d="M411.1 531.47L347.56 711.06" stroke="hsl(228.5, 77.2%, 51.5%)" stroke-width="1.5"></path><path d="M347.56 711.06L347.56 711.06" stroke="hsl(228.5, 77.2%, 51.5%)" stroke-width="1.5"></path><path d="M347.56 711.06L224.96 543.92" stroke="hsl(228.5, 77.2%, 51.5%)" stroke-width="1.5"></path><path d="M347.56 711.06L558.66 645.09" stroke="hsl(228.5, 77.2%, 51.5%)" stroke-width="1.5"></path><path d="M347.56 711.06L87.1 701.8" stroke="hsl(228.5, 77.2%, 51.5%)" stroke-width="1.5"></path><path d="M836.8 354.43L836.8 354.43" stroke="hsl(228.5, 77.2%, 51.5%)" stroke-width="1.5"></path><path d="M836.8 354.43L700.05 380.69" stroke="hsl(228.5, 77.2%, 51.5%)" stroke-width="1.5"></path><path d="M836.8 354.43L835.54 501.32" stroke="hsl(228.5, 77.2%, 51.5%)" stroke-width="1.5"></path><path d="M836.8 354.43L991.14 236.84" stroke="hsl(228.5, 77.2%, 51.5%)" stroke-width="1.5"></path><path d="M836.8 354.43L947.31 529.19" stroke="hsl(228.5, 77.2%, 51.5%)" stroke-width="1.5"></path><path d="M836.8 354.43L703.39 529.33" stroke="hsl(228.5, 77.2%, 51.5%)" stroke-width="1.5"></path><path d="M991.14 236.84L991.14 236.84" stroke="hsl(228.5, 77.2%, 51.5%)" stroke-width="1.5"></path><path d="M991.14 236.84L1100.83 225.75" stroke="hsl(228.5, 77.2%, 51.5%)" stroke-width="1.5"></path><path d="M991.14 236.84L1261.27 350.65" stroke="hsl(228.5, 77.2%, 51.5%)" stroke-width="1.5"></path><path d="M991.14 236.84L947.31 529.19" stroke="hsl(228.5, 77.2%, 51.5%)" stroke-width="1.5"></path><path d="M991.14 236.84L1251.43 87.77" stroke="hsl(228.5, 77.2%, 51.5%)" stroke-width="1.5"></path><path d="M991.14 236.84L1292.22 222.86" stroke="hsl(228.5, 77.2%, 51.5%)" stroke-width="1.5"></path><path d="M1257.58 -44.61L1257.58 -44.61" stroke="hsl(228.5, 77.2%, 51.5%)" stroke-width="1.5"></path><path d="M1257.58 -44.61L1251.43 87.77" stroke="hsl(228.5, 77.2%, 51.5%)" stroke-width="1.5"></path><path d="M1433.34 237.66L1433.34 237.66" stroke="hsl(228.5, 77.2%, 51.5%)" stroke-width="1.5"></path><path d="M1433.34 237.66L1456.51 364.22" stroke="hsl(228.5, 77.2%, 51.5%)" stroke-width="1.5"></path><path d="M1433.34 237.66L1292.22 222.86" stroke="hsl(228.5, 77.2%, 51.5%)" stroke-width="1.5"></path><path d="M1433.34 237.66L1388.6 99.13" stroke="hsl(228.5, 77.2%, 51.5%)" stroke-width="1.5"></path><path d="M1433.34 237.66L1590.2 209.64" stroke="hsl(228.5, 77.2%, 51.5%)" stroke-width="1.5"></path><path d="M1433.34 237.66L1587.51 364.77" stroke="hsl(228.5, 77.2%, 51.5%)" stroke-width="1.5"></path><path d="M1456.51 364.22L1456.51 364.22" stroke="hsl(228.5, 77.2%, 51.5%)" stroke-width="1.5"></path><path d="M1456.51 364.22L1587.51 364.77" stroke="hsl(228.5, 77.2%, 51.5%)" stroke-width="1.5"></path><path d="M1456.51 364.22L1421.9 540.18" stroke="hsl(228.5, 77.2%, 51.5%)" stroke-width="1.5"></path><path d="M1456.51 364.22L1261.27 350.65" stroke="hsl(228.5, 77.2%, 51.5%)" stroke-width="1.5"></path><path d="M1421.9 540.18L1421.9 540.18" stroke="hsl(228.5, 77.2%, 51.5%)" stroke-width="1.5"></path><path d="M1421.9 540.18L1394.65 678.06" stroke="hsl(228.5, 77.2%, 51.5%)" stroke-width="1.5"></path><path d="M1421.9 540.18L1247.93 554.57" stroke="hsl(228.5, 77.2%, 51.5%)" stroke-width="1.5"></path><path d="M1421.9 540.18L1598.71 507.67" stroke="hsl(228.5, 77.2%, 51.5%)" stroke-width="1.5"></path><path d="M1421.9 540.18L1586.89 692.97" stroke="hsl(228.5, 77.2%, 51.5%)" stroke-width="1.5"></path><path d="M1421.9 540.18L1258.72 701.99" stroke="hsl(228.5, 77.2%, 51.5%)" stroke-width="1.5"></path><path d="M1575.21 -62.92L1575.21 -62.92" stroke="hsl(228.5, 77.2%, 51.5%)" stroke-width="1.5"></path><path d="M1575.21 -62.92L1564.13 74.52" stroke="hsl(228.5, 77.2%, 51.5%)" stroke-width="1.5"></path><path d="M1575.21 -62.92L1390.08 -73.64" stroke="hsl(228.5, 77.2%, 51.5%)" stroke-width="1.5"></path><path d="M1575.21 -62.92L1388.6 99.13" stroke="hsl(228.5, 77.2%, 51.5%)" stroke-width="1.5"></path><path d="M1575.21 -62.92L1590.2 209.64" stroke="hsl(228.5, 77.2%, 51.5%)" stroke-width="1.5"></path><path d="M1575.21 -62.92L1257.58 -44.61" stroke="hsl(228.5, 77.2%, 51.5%)" stroke-width="1.5"></path><path d="M1575.21 -62.92L1433.34 237.66" stroke="hsl(228.5, 77.2%, 51.5%)" stroke-width="1.5"></path><path d="M-60.86 515.08L-60.86 515.08" stroke="hsl(228.5, 77.2%, 51.5%)" stroke-width="1.5"></path><path d="M-60.86 515.08L51.91 536.31" stroke="hsl(228.5, 77.2%, 51.5%)" stroke-width="1.5"></path><path d="M-60.86 515.08L-100.43 669.55" stroke="hsl(228.5, 77.2%, 51.5%)" stroke-width="1.5"></path><path d="M-60.86 515.08L87.1 701.8" stroke="hsl(228.5, 77.2%, 51.5%)" stroke-width="1.5"></path><path d="M-60.86 515.08L224.96 543.92" stroke="hsl(228.5, 77.2%, 51.5%)" stroke-width="1.5"></path><path d="M-100.43 669.55L-100.43 669.55" stroke="hsl(228.5, 77.2%, 51.5%)" stroke-width="1.5"></path><path d="M-100.43 669.55L87.1 701.8" stroke="hsl(228.5, 77.2%, 51.5%)" stroke-width="1.5"></path><path d="M-100.43 669.55L51.91 536.31" stroke="hsl(228.5, 77.2%, 51.5%)" stroke-width="1.5"></path><path d="M-100.43 669.55L224.96 543.92" stroke="hsl(228.5, 77.2%, 51.5%)" stroke-width="1.5"></path><path d="M51.91 536.31L51.91 536.31" stroke="hsl(228.5, 77.2%, 51.5%)" stroke-width="1.5"></path><path d="M51.91 536.31L87.1 701.8" stroke="hsl(228.5, 77.2%, 51.5%)" stroke-width="1.5"></path><path d="M51.91 536.31L224.96 543.92" stroke="hsl(228.5, 77.2%, 51.5%)" stroke-width="1.5"></path><path d="M51.91 536.31L347.56 711.06" stroke="hsl(228.5, 77.2%, 51.5%)" stroke-width="1.5"></path><path d="M87.1 701.8L87.1 701.8" stroke="hsl(228.5, 77.2%, 51.5%)" stroke-width="1.5"></path><path d="M224.96 543.92L224.96 543.92" stroke="hsl(228.5, 77.2%, 51.5%)" stroke-width="1.5"></path><path d="M224.96 543.92L87.1 701.8" stroke="hsl(228.5, 77.2%, 51.5%)" stroke-width="1.5"></path><path d="M224.96 543.92L511.71 503.55" stroke="hsl(228.5, 77.2%, 51.5%)" stroke-width="1.5"></path><path d="M511.71 503.55L511.71 503.55" stroke="hsl(228.5, 77.2%, 51.5%)" stroke-width="1.5"></path><path d="M511.71 503.55L558.66 645.09" stroke="hsl(228.5, 77.2%, 51.5%)" stroke-width="1.5"></path><path d="M511.71 503.55L703.39 529.33" stroke="hsl(228.5, 77.2%, 51.5%)" stroke-width="1.5"></path><path d="M511.71 503.55L643.17 653.02" stroke="hsl(228.5, 77.2%, 51.5%)" stroke-width="1.5"></path><path d="M511.71 503.55L700.05 380.69" stroke="hsl(228.5, 77.2%, 51.5%)" stroke-width="1.5"></path><path d="M558.66 645.09L558.66 645.09" stroke="hsl(228.5, 77.2%, 51.5%)" stroke-width="1.5"></path><path d="M558.66 645.09L643.17 653.02" stroke="hsl(228.5, 77.2%, 51.5%)" stroke-width="1.5"></path><path d="M558.66 645.09L703.39 529.33" stroke="hsl(228.5, 77.2%, 51.5%)" stroke-width="1.5"></path><path d="M558.66 645.09L805.62 672.03" stroke="hsl(228.5, 77.2%, 51.5%)" stroke-width="1.5"></path><path d="M700.05 380.69L700.05 380.69" stroke="hsl(228.5, 77.2%, 51.5%)" stroke-width="1.5"></path><path d="M700.05 380.69L703.39 529.33" stroke="hsl(228.5, 77.2%, 51.5%)" stroke-width="1.5"></path><path d="M700.05 380.69L835.54 501.32" stroke="hsl(228.5, 77.2%, 51.5%)" stroke-width="1.5"></path><path d="M700.05 380.69L643.17 653.02" stroke="hsl(228.5, 77.2%, 51.5%)" stroke-width="1.5"></path><path d="M703.39 529.33L703.39 529.33" stroke="hsl(228.5, 77.2%, 51.5%)" stroke-width="1.5"></path><path d="M703.39 529.33L835.54 501.32" stroke="hsl(228.5, 77.2%, 51.5%)" stroke-width="1.5"></path><path d="M703.39 529.33L643.17 653.02" stroke="hsl(228.5, 77.2%, 51.5%)" stroke-width="1.5"></path><path d="M703.39 529.33L805.62 672.03" stroke="hsl(228.5, 77.2%, 51.5%)" stroke-width="1.5"></path><path d="M643.17 653.02L643.17 653.02" stroke="hsl(228.5, 77.2%, 51.5%)" stroke-width="1.5"></path><path d="M643.17 653.02L805.62 672.03" stroke="hsl(228.5, 77.2%, 51.5%)" stroke-width="1.5"></path><path d="M643.17 653.02L835.54 501.32" stroke="hsl(228.5, 77.2%, 51.5%)" stroke-width="1.5"></path><path d="M643.17 653.02L411.1 531.47" stroke="hsl(228.5, 77.2%, 51.5%)" stroke-width="1.5"></path><path d="M835.54 501.32L835.54 501.32" stroke="hsl(228.5, 77.2%, 51.5%)" stroke-width="1.5"></path><path d="M835.54 501.32L947.31 529.19" stroke="hsl(228.5, 77.2%, 51.5%)" stroke-width="1.5"></path><path d="M835.54 501.32L805.62 672.03" stroke="hsl(228.5, 77.2%, 51.5%)" stroke-width="1.5"></path><path d="M805.62 672.03L805.62 672.03" stroke="hsl(228.5, 77.2%, 51.5%)" stroke-width="1.5"></path><path d="M805.62 672.03L957.54 642.02" stroke="hsl(228.5, 77.2%, 51.5%)" stroke-width="1.5"></path><path d="M805.62 672.03L947.31 529.19" stroke="hsl(228.5, 77.2%, 51.5%)" stroke-width="1.5"></path><path d="M947.31 529.19L947.31 529.19" stroke="hsl(228.5, 77.2%, 51.5%)" stroke-width="1.5"></path><path d="M947.31 529.19L957.54 642.02" stroke="hsl(228.5, 77.2%, 51.5%)" stroke-width="1.5"></path><path d="M947.31 529.19L1097.23 661.51" stroke="hsl(228.5, 77.2%, 51.5%)" stroke-width="1.5"></path><path d="M947.31 529.19L1145.03 562.28" stroke="hsl(228.5, 77.2%, 51.5%)" stroke-width="1.5"></path><path d="M957.54 642.02L957.54 642.02" stroke="hsl(228.5, 77.2%, 51.5%)" stroke-width="1.5"></path><path d="M957.54 642.02L1097.23 661.51" stroke="hsl(228.5, 77.2%, 51.5%)" stroke-width="1.5"></path><path d="M1100.83 225.75L1100.83 225.75" stroke="hsl(228.5, 77.2%, 51.5%)" stroke-width="1.5"></path><path d="M1100.83 225.75L1292.22 222.86" stroke="hsl(228.5, 77.2%, 51.5%)" stroke-width="1.5"></path><path d="M1100.83 225.75L1261.27 350.65" stroke="hsl(228.5, 77.2%, 51.5%)" stroke-width="1.5"></path><path d="M1145.03 562.28L1145.03 562.28" stroke="hsl(228.5, 77.2%, 51.5%)" stroke-width="1.5"></path><path d="M1145.03 562.28L1247.93 554.57" stroke="hsl(228.5, 77.2%, 51.5%)" stroke-width="1.5"></path><path d="M1145.03 562.28L1097.23 661.51" stroke="hsl(228.5, 77.2%, 51.5%)" stroke-width="1.5"></path><path d="M1145.03 562.28L1258.72 701.99" stroke="hsl(228.5, 77.2%, 51.5%)" stroke-width="1.5"></path><path d="M1097.23 661.51L1097.23 661.51" stroke="hsl(228.5, 77.2%, 51.5%)" stroke-width="1.5"></path><path d="M1097.23 661.51L1258.72 701.99" stroke="hsl(228.5, 77.2%, 51.5%)" stroke-width="1.5"></path><path d="M1097.23 661.51L1247.93 554.57" stroke="hsl(228.5, 77.2%, 51.5%)" stroke-width="1.5"></path><path d="M1097.23 661.51L805.62 672.03" stroke="hsl(228.5, 77.2%, 51.5%)" stroke-width="1.5"></path><path d="M1251.43 87.77L1251.43 87.77" stroke="hsl(228.5, 77.2%, 51.5%)" stroke-width="1.5"></path><path d="M1251.43 87.77L1388.6 99.13" stroke="hsl(228.5, 77.2%, 51.5%)" stroke-width="1.5"></path><path d="M1251.43 87.77L1292.22 222.86" stroke="hsl(228.5, 77.2%, 51.5%)" stroke-width="1.5"></path><path d="M1251.43 87.77L1100.83 225.75" stroke="hsl(228.5, 77.2%, 51.5%)" stroke-width="1.5"></path><path d="M1251.43 87.77L1390.08 -73.64" stroke="hsl(228.5, 77.2%, 51.5%)" stroke-width="1.5"></path><path d="M1251.43 87.77L1433.34 237.66" stroke="hsl(228.5, 77.2%, 51.5%)" stroke-width="1.5"></path><path d="M1292.22 222.86L1292.22 222.86" stroke="hsl(228.5, 77.2%, 51.5%)" stroke-width="1.5"></path><path d="M1292.22 222.86L1261.27 350.65" stroke="hsl(228.5, 77.2%, 51.5%)" stroke-width="1.5"></path><path d="M1292.22 222.86L1388.6 99.13" stroke="hsl(228.5, 77.2%, 51.5%)" stroke-width="1.5"></path><path d="M1292.22 222.86L1456.51 364.22" stroke="hsl(228.5, 77.2%, 51.5%)" stroke-width="1.5"></path><path d="M1261.27 350.65L1261.27 350.65" stroke="hsl(228.5, 77.2%, 51.5%)" stroke-width="1.5"></path><path d="M1261.27 350.65L1247.93 554.57" stroke="hsl(228.5, 77.2%, 51.5%)" stroke-width="1.5"></path><path d="M1261.27 350.65L1433.34 237.66" stroke="hsl(228.5, 77.2%, 51.5%)" stroke-width="1.5"></path><path d="M1247.93 554.57L1247.93 554.57" stroke="hsl(228.5, 77.2%, 51.5%)" stroke-width="1.5"></path><path d="M1247.93 554.57L1258.72 701.99" stroke="hsl(228.5, 77.2%, 51.5%)" stroke-width="1.5"></path><path d="M1247.93 554.57L1394.65 678.06" stroke="hsl(228.5, 77.2%, 51.5%)" stroke-width="1.5"></path><path d="M1258.72 701.99L1258.72 701.99" stroke="hsl(228.5, 77.2%, 51.5%)" stroke-width="1.5"></path><path d="M1258.72 701.99L1394.65 678.06" stroke="hsl(228.5, 77.2%, 51.5%)" stroke-width="1.5"></path><path d="M1390.08 -73.64L1390.08 -73.64" stroke="hsl(228.5, 77.2%, 51.5%)" stroke-width="1.5"></path><path d="M1390.08 -73.64L1257.58 -44.61" stroke="hsl(228.5, 77.2%, 51.5%)" stroke-width="1.5"></path><path d="M1390.08 -73.64L1388.6 99.13" stroke="hsl(228.5, 77.2%, 51.5%)" stroke-width="1.5"></path><path d="M1388.6 99.13L1388.6 99.13" stroke="hsl(228.5, 77.2%, 51.5%)" stroke-width="1.5"></path><path d="M1388.6 99.13L1564.13 74.52" stroke="hsl(228.5, 77.2%, 51.5%)" stroke-width="1.5"></path><path d="M1388.6 99.13L1257.58 -44.61" stroke="hsl(228.5, 77.2%, 51.5%)" stroke-width="1.5"></path><path d="M1394.65 678.06L1394.65 678.06" stroke="hsl(228.5, 77.2%, 51.5%)" stroke-width="1.5"></path><path d="M1564.13 74.52L1564.13 74.52" stroke="hsl(228.5, 77.2%, 51.5%)" stroke-width="1.5"></path><path d="M1564.13 74.52L1590.2 209.64" stroke="hsl(228.5, 77.2%, 51.5%)" stroke-width="1.5"></path><path d="M1590.2 209.64L1590.2 209.64" stroke="hsl(228.5, 77.2%, 51.5%)" stroke-width="1.5"></path><path d="M1590.2 209.64L1587.51 364.77" stroke="hsl(228.5, 77.2%, 51.5%)" stroke-width="1.5"></path><path d="M1587.51 364.77L1587.51 364.77" stroke="hsl(228.5, 77.2%, 51.5%)" stroke-width="1.5"></path><path d="M1587.51 364.77L1598.71 507.67" stroke="hsl(228.5, 77.2%, 51.5%)" stroke-width="1.5"></path><path d="M1598.71 507.67L1598.71 507.67" stroke="hsl(228.5, 77.2%, 51.5%)" stroke-width="1.5"></path><path d="M1586.89 692.97L1586.89 692.97" stroke="hsl(228.5, 77.2%, 51.5%)" stroke-width="1.5"></path><path d="M1586.89 692.97L1598.71 507.67" stroke="hsl(228.5, 77.2%, 51.5%)" stroke-width="1.5"></path><path d="M1586.89 692.97L1394.65 678.06" stroke="hsl(228.5, 77.2%, 51.5%)" stroke-width="1.5"></path><path d="M1586.89 692.97L1587.51 364.77" stroke="hsl(228.5, 77.2%, 51.5%)" stroke-width="1.5"></path><path d="M1586.89 692.97L1258.72 701.99" stroke="hsl(228.5, 77.2%, 51.5%)" stroke-width="1.5"></path><path d="M1586.89 692.97L1456.51 364.22" stroke="hsl(228.5, 77.2%, 51.5%)" stroke-width="1.5"></path><circle r="25" cx="411.1" cy="531.47" fill="url(&quot;#SvgjsRadialGradient1007&quot;)"></circle><circle r="25" cx="347.56" cy="711.06" fill="url(&quot;#SvgjsRadialGradient1007&quot;)"></circle><circle r="25" cx="836.8" cy="354.43" fill="url(&quot;#SvgjsRadialGradient1007&quot;)"></circle><circle r="25" cx="991.14" cy="236.84" fill="url(&quot;#SvgjsRadialGradient1007&quot;)"></circle><circle r="25" cx="1257.58" cy="-44.61" fill="url(&quot;#SvgjsRadialGradient1007&quot;)"></circle><circle r="25" cx="1433.34" cy="237.66" fill="url(&quot;#SvgjsRadialGradient1007&quot;)"></circle><circle r="25" cx="1456.51" cy="364.22" fill="url(&quot;#SvgjsRadialGradient1007&quot;)"></circle><circle r="25" cx="1421.9" cy="540.18" fill="url(&quot;#SvgjsRadialGradient1007&quot;)"></circle><circle r="25" cx="1575.21" cy="-62.92" fill="url(&quot;#SvgjsRadialGradient1007&quot;)"></circle><circle r="5" cx="-60.86" cy="515.08" fill="#8b9ad9"></circle><circle r="5" cx="-100.43" cy="669.55" fill="#8b9ad9"></circle><circle r="5" cx="51.91" cy="536.31" fill="#8b9ad9"></circle><circle r="5" cx="87.1" cy="701.8" fill="#8b9ad9"></circle><circle r="5" cx="224.96" cy="543.92" fill="#8b9ad9"></circle><circle r="5" cx="511.71" cy="503.55" fill="#8b9ad9"></circle><circle r="5" cx="558.66" cy="645.09" fill="#8b9ad9"></circle><circle r="5" cx="700.05" cy="380.69" fill="#8b9ad9"></circle><circle r="5" cx="703.39" cy="529.33" fill="#8b9ad9"></circle><circle r="5" cx="643.17" cy="653.02" fill="#8b9ad9"></circle><circle r="5" cx="835.54" cy="501.32" fill="#8b9ad9"></circle><circle r="5" cx="805.62" cy="672.03" fill="#8b9ad9"></circle><circle r="5" cx="947.31" cy="529.19" fill="#8b9ad9"></circle><circle r="5" cx="957.54" cy="642.02" fill="#8b9ad9"></circle><circle r="5" cx="1100.83" cy="225.75" fill="#8b9ad9"></circle><circle r="5" cx="1145.03" cy="562.28" fill="#8b9ad9"></circle><circle r="5" cx="1097.23" cy="661.51" fill="#8b9ad9"></circle><circle r="5" cx="1251.43" cy="87.77" fill="#8b9ad9"></circle><circle r="5" cx="1292.22" cy="222.86" fill="#8b9ad9"></circle><circle r="5" cx="1261.27" cy="350.65" fill="#8b9ad9"></circle><circle r="5" cx="1247.93" cy="554.57" fill="#8b9ad9"></circle><circle r="5" cx="1258.72" cy="701.99" fill="#8b9ad9"></circle><circle r="5" cx="1390.08" cy="-73.64" fill="#8b9ad9"></circle><circle r="5" cx="1388.6" cy="99.13" fill="#8b9ad9"></circle><circle r="5" cx="1394.65" cy="678.06" fill="#8b9ad9"></circle><circle r="5" cx="1564.13" cy="74.52" fill="#8b9ad9"></circle><circle r="5" cx="1590.2" cy="209.64" fill="#8b9ad9"></circle><circle r="5" cx="1587.51" cy="364.77" fill="#8b9ad9"></circle><circle r="5" cx="1598.71" cy="507.67" fill="#8b9ad9"></circle><circle r="5" cx="1586.89" cy="692.97" fill="#8b9ad9"></circle></g><defs><mask id="SvgjsMask1006"><rect width="1440" height="560" fill="#ffffff"></rect></mask><radialGradient id="SvgjsRadialGradient1007"><stop stop-color="#ffffff" offset="0.1"></stop><stop stop-color="#1735b3" offset="0.2"></stop><stop stop-color="rgba(23, 53, 179, 0)" offset="1"></stop></radialGradient></defs></svg>