<svg xmlns="http://www.w3.org/2000/svg" version="1.1" xmlns:xlink="http://www.w3.org/1999/xlink" xmlns:svgjs="http://svgjs.dev/svgjs" width="1440" height="560" preserveAspectRatio="none" viewBox="0 0 1440 560"><g mask="url(&quot;#SvgjsMask1063&quot;)" fill="none"><rect width="1440" height="560" x="0" y="0" fill="#0e2a47"></rect><path d="M1186.73 215.44 a163.64 163.64 0 1 0 327.28 0 a163.64 163.64 0 1 0 -327.28 0z" fill="rgba(28, 83, 142, 0.4)" class="triangle-float2"></path><path d="M-77.91 446.01 a166.05 166.05 0 1 0 332.1 0 a166.05 166.05 0 1 0 -332.1 0z" fill="rgba(28, 83, 142, 0.4)" class="triangle-float1"></path><path d="M1239.37 558.81 a100.96 100.96 0 1 0 201.92 0 a100.96 100.96 0 1 0 -201.92 0z" fill="rgba(28, 83, 142, 0.4)" class="triangle-float1"></path><path d="M225.37 140.84 a146.2 146.2 0 1 0 292.4 0 a146.2 146.2 0 1 0 -292.4 0z" fill="rgba(28, 83, 142, 0.4)" class="triangle-float3"></path><path d="M624.54 240.69 a181.79 181.79 0 1 0 363.58 0 a181.79 181.79 0 1 0 -363.58 0z" fill="rgba(28, 83, 142, 0.4)" class="triangle-float2"></path><path d="M207.37 362.95 a148.65 148.65 0 1 0 297.3 0 a148.65 148.65 0 1 0 -297.3 0z" fill="rgba(28, 83, 142, 0.4)" class="triangle-float1"></path><path d="M1026.13 440.99 a103.85 103.85 0 1 0 207.7 0 a103.85 103.85 0 1 0 -207.7 0z" fill="rgba(28, 83, 142, 0.4)" class="triangle-float2"></path></g><defs><mask id="SvgjsMask1063"><rect width="1440" height="560" fill="#ffffff"></rect></mask><style>
                @keyframes float1 {
                    0%{transform: translate(0, 0)}
                    50%{transform: translate(-10px, 0)}
                    100%{transform: translate(0, 0)}
                }

                .triangle-float1 {
                    animation: float1 5s infinite;
                }

                @keyframes float2 {
                    0%{transform: translate(0, 0)}
                    50%{transform: translate(-5px, -5px)}
                    100%{transform: translate(0, 0)}
                }

                .triangle-float2 {
                    animation: float2 4s infinite;
                }

                @keyframes float3 {
                    0%{transform: translate(0, 0)}
                    50%{transform: translate(0, -10px)}
                    100%{transform: translate(0, 0)}
                }

                .triangle-float3 {
                    animation: float3 6s infinite;
                }
            </style></defs></svg>